<svg width="36" height="36" viewBox="0 0 36 36" fill="none" xmlns="http://www.w3.org/2000/svg">
<path fill-rule="evenodd" clip-rule="evenodd" d="M18 36C27.9411 36 36 27.9411 36 18C36 8.05887 27.9411 0 18 0C8.05887 0 0 8.05887 0 18C0 27.9411 8.05887 36 18 36Z" fill="#4339F2"/>
<path fill-rule="evenodd" clip-rule="evenodd" d="M23.7273 17.1818H18.8182V12.2727C18.8182 11.8203 18.4517 11.4545 18 11.4545C17.5484 11.4545 17.1818 11.8203 17.1818 12.2727V17.1818H12.2727C11.8211 17.1818 11.4546 17.5475 11.4546 18C11.4546 18.4525 11.8211 18.8182 12.2727 18.8182H17.1818V23.7273C17.1818 24.1797 17.5484 24.5455 18 24.5455C18.4517 24.5455 18.8182 24.1797 18.8182 23.7273V18.8182H23.7273C24.1789 18.8182 24.5455 18.4525 24.5455 18C24.5455 17.5475 24.1789 17.1818 23.7273 17.1818Z" fill="white"/>
</svg>
