<svg width="14" height="15" viewBox="0 0 14 15" fill="none" xmlns="http://www.w3.org/2000/svg">
<path fill-rule="evenodd" clip-rule="evenodd" d="M4.76464 2.28848C4.87283 2.12619 5.05496 2.02872 5.25 2.02872H8.75C8.94504 2.02872 9.12717 2.12619 9.23536 2.28848L10.2289 3.77872H12.25C12.7141 3.77872 13.1592 3.96309 13.4874 4.29128C13.8156 4.61947 14 5.06459 14 5.52872V11.9454C14 12.4095 13.8156 12.8546 13.4874 13.1828C13.1592 13.511 12.7141 13.6954 12.25 13.6954H1.75C1.28587 13.6954 0.840752 13.511 0.512563 13.1828C0.184375 12.8546 0 12.4095 0 11.9454V5.52872C0 5.06459 0.184374 4.61947 0.512563 4.29128C0.840752 3.96309 1.28587 3.77872 1.75 3.77872H3.77114L4.76464 2.28848ZM5.56219 3.19538L4.5687 4.68563C4.46051 4.84791 4.27837 4.94538 4.08333 4.94538H1.75C1.59529 4.94538 1.44692 5.00684 1.33752 5.11624C1.22812 5.22563 1.16667 5.37401 1.16667 5.52872V11.9454C1.16667 12.1001 1.22812 12.2485 1.33752 12.3579C1.44692 12.4673 1.59529 12.5287 1.75 12.5287H12.25C12.4047 12.5287 12.5531 12.4673 12.6625 12.3579C12.7719 12.2485 12.8333 12.1001 12.8333 11.9454V5.52872C12.8333 5.37401 12.7719 5.22563 12.6625 5.11624C12.5531 5.00684 12.4047 4.94538 12.25 4.94538H9.91667C9.72163 4.94538 9.53949 4.84791 9.4313 4.68563L8.43781 3.19538H5.56219Z" fill="white"/>
<path fill-rule="evenodd" clip-rule="evenodd" d="M7.00016 6.69538C6.03366 6.69538 5.25016 7.47889 5.25016 8.44538C5.25016 9.41188 6.03366 10.1954 7.00016 10.1954C7.96666 10.1954 8.75016 9.41188 8.75016 8.44538C8.75016 7.47889 7.96666 6.69538 7.00016 6.69538ZM4.0835 8.44538C4.0835 6.83455 5.38933 5.52872 7.00016 5.52872C8.61099 5.52872 9.91683 6.83455 9.91683 8.44538C9.91683 10.0562 8.61099 11.3621 7.00016 11.3621C5.38933 11.3621 4.0835 10.0562 4.0835 8.44538Z" fill="white"/>
</svg>
